<svg id="Layer_1" data-name="Layer 1" xmlns="http://www.w3.org/2000/svg" viewBox="0 0 2790 786"><defs><style>.cls-1{fill:#e93d49;}</style></defs><title>red</title><rect class="cls-1" x="383.3" y="8.34" width="119.44" height="240.48" transform="translate(38.84 350.92) rotate(-45)"/><rect class="cls-1" x="407.42" y="270.56" width="265.52" height="116.98" transform="translate(-74.45 478.34) rotate(-45)"/><rect class="cls-1" x="536.51" y="426.31" width="119.44" height="124.17" transform="translate(-170.71 564.64) rotate(-45)"/><rect class="cls-1" x="639.81" y="323.01" width="119.44" height="124.17" transform="translate(-67.42 607.43) rotate(-45)"/><rect class="cls-1" x="272.05" y="511.27" width="119.44" height="272.88" transform="translate(-360.83 424.3) rotate(-45)"/><rect class="cls-1" x="115.83" y="438.75" width="121.76" height="104.52" transform="translate(-295.44 268.77) rotate(-45)"/><rect class="cls-1" x="19.69" y="342.61" width="121.76" height="104.52" transform="translate(-255.62 172.63) rotate(-45)"/><path class="cls-1" d="M135.25,266.29,123.86,254.9A92.13,92.13,0,0,1,254.15,124.61L265.54,136l-53.08,53.08,170,170L467,274.67l-170-170-13,13-11.39-11.39a118.13,118.13,0,0,0-167.06,167l11.4,11.4-9.53,9.52L492.78,679.64l84.46-84.45L191.79,209.75Z"/><path class="cls-1" d="M1368,198.48c15.06-43.8,11.63-69.12-18.48-93.76-18.48-15.06-52-31.48-87.6-42.43,4.11,39-111.55,227.9-152.62,338.08,16.43-74.6,41.07-175.2,43.8-213.53,2.74-39-2.73-63-24.63-80.07s-63.65-35.59-97.18-45.17C1025.8,103.35,904,380.52,880.71,479.76c-9.58,41.75-2.73,63,21.22,78.7,13,8.9,32.85,17.79,50.64,23.27-4.1-37.64,35.59-167.67,115-381.2-9.58,66.39-39.7,202.58-42.43,249.11-2.74,47.23,10.26,67.07,32.85,82.13,18.47,12.32,44.48,24,68.43,31.48-5.47-43.8,58.18-188.2,160.83-373.67-37.64,98.55-80.07,225.16-92.39,288.13-8.9,45.16,0,65.69,24.64,80.75,15,9.58,35.59,18.48,53.38,23.95C1267.39,547.51,1292,425,1368,198.48Z"/><path class="cls-1" d="M1541.82,223.12c-2.73,40.38-64.33,190.94-112.23,244.32-13,14.37-21.22,12.32-16.43-6.16,10.95-41.06,37-86.92,51.33-131.4,10.27-32.17,13-53.38-4.79-74.6-10.27-12.32-32.17-24.64-50.65-31.48-10.26,74.6-98.55,205.31-98.55,285.39,0,38.32,21.22,59.54,43.12,59.54,31.48,0,67.75-23.27,97.18-69.81-40.38,93.76-72.54,128-104.71,128-19.84,0-38.32-12.32-51.33-29.43-22.58,64.33,0,133.45,67.07,133.45,52.7,0,92.39-46.53,132.09-131.4,30.79-66.38,80.75-196.41,98.55-264.17,10.26-39,11-63-3.42-80.07C1578.78,243,1561.67,231.33,1541.82,223.12Z"/><path class="cls-1" d="M1882,253.91c0-39,54.07-106.76,110.18-115-7.52,24.64-35.58,69.8-42.43,97.18-6.16,25.32-1.37,37.64,14.38,50.64,15.05,13,43.11,24.64,66.38,26-2-35.59,52-132.77,52.7-168.36.68-38.32-38.33-82.81-89-82.81-102-1.36-212.16,97.19-212.16,192.31,0,81.44,116.35,124.56,116.35,171.1,0,21.9-19.85,36.27-50.65,36.27-56.8,0-97.18-37.64-97.87-82.81-31.48,23.95-45.16,55.44-45.16,95.13,0,60.91,51.32,108.13,140.29,108.13,98.55,0,156.73-67.07,156.73-138.24C2001.72,356.57,1882,316.88,1882,253.91Z"/><path class="cls-1" d="M2298.05,335.35c13-38.32,9.58-63-4.79-80.07-10.27-12.32-28.75-23.95-48.6-32.16-2.73,40.38-72.54,207.36-114.29,251.85-12.31,13-20.53,11.63-16.42-6.16,9.58-43.8,39-94.45,53.38-138.93,10.27-32.17,13-53.38-4.79-74.6-10.27-12.32-32.17-24.64-50.64-31.48-10.27,74.6-98.55,207.37-98.55,291.54,0,38.33,21.21,59.55,43.11,59.55,30.11,0,67.07-28.06,95.13-67.07-2.05,19.84,3.42,34.9,15.74,45.17,15.74,13.68,37,21.21,57.49,26C2215.24,538.61,2278.88,392.84,2298.05,335.35Z"/><path class="cls-1" d="M2590.27,288.82c0-39-18.48-68.44-51.32-68.44-35.59,0-73.92,33.53-112.24,93.07,24.63-54.06,49.27-111.55,60.91-141.66,11.63-30.8,11.63-52.7-3.43-73.23-11-15-29.42-31.48-49.27-41.75-5.48,41.75-118.4,317.55-147.14,423-9.58,34.22-4.79,55.43,7.53,69.12,11,13,32.85,25.32,52,31.48,0-19.16,13-74.6,37.64-128.66,18.48,88.28,47.22,126.61,80.76,126.61,24.63,0,56.8-19.85,78.7-47.22-18.48-4.79-52-45.17-76-93.76C2549.9,413.37,2590.27,351.1,2590.27,288.82ZM2403.44,416.11c29.43-54.07,65.7-104.71,84.86-104.71C2508.15,311.4,2480.77,392.84,2403.44,416.11Z"/><path class="cls-1" d="M2729.89,76.66c-29.43,0-54.07,42.43-54.07,83.49,0,32.85,30.11,64.34,63,64.34,28.75,0,50.65-32.85,50.65-74.6C2789.43,110.2,2764.79,76.66,2729.89,76.66Z"/><path class="cls-1" d="M2661.45,225.85c-13,55.44-73.23,164.94-95.13,248.43-11,39.7-6.84,61.6,9.58,76.65,14.37,13,43.12,26,65.7,30.8-8.21-30.8,39-156.72,66.39-236.79,11-32.17,11.63-56.12-.69-76.65C2697.72,252.54,2679.93,236.12,2661.45,225.85Z"/></svg>